{
.appVersion = "3058";
.formatVersion = 3;
axes = (
{
name = Weight;
tag = wght;
}
);
date = "2021-04-19 07:35:30 +0000";
familyName = Norvrandt;
fontMaster = (
{
axesValues = (
100
);
id = "FC429158-EA96-492C-B709-B39596C20987";
metricValues = (
{
pos = 800;
},
{
pos = 700;
},
{
pos = 500;
},
{
},
{
pos = -200;
}
);
name = Regular;
}
);
glyphs = (
{
glyphname = A;
lastChange = "2019-09-24 01:10:39 +0000";
layers = (
{
layerId = "FC429158-EA96-492C-B709-B39596C20987";
shapes = (
{
closed = 1;
nodes = (
(468,417,l),
(468,417,o),
(404,387,o),
(376,377,c),
(354,368,o),
(302,349,o),
(302,349,c),
(292,534,l),
(177,217,l),
(177,217,o),
(250,275,o),
(271,282,c),
(295,292,o),
(324,302,o),
(349,285,c),
(388,257,o),
(466,146,o),
(499,120,c),
(512,110,o),
(540,117,o),
(550,121,c),
(556,123,o),
(559,133,o),
(559,140,c),
(563,234,o),
(566,683,o),
(566,683,c),
(535,668,l),
(535,668,o),
(532,720,o),
(541,736,c),
(550,748,o),
(572,746,o),
(584,753,c),
(603,761,o),
(623,782,o),
(643,790,c),
(662,798,o),
(706,796,o),
(706,796,c),
(706,202,l),
(706,202,o),
(519,13,o),
(468,-26,c),
(454,-39,o),
(424,-42,o),
(409,-29,c),
(369,2,o),
(268,124,o),
(235,153,c),
(225,161,o),
(211,161,o),
(201,154,c),
(172,130,o),
(91,31,o),
(59,8,c),
(49,-1,o),
(27,4,o),
(19,15,c),
(11,26,o),
(7,55,o),
(14,73,c),
(54,173,o),
(214,513,o),
(257,617,c),
(268,644,o),
(276,699,o),
(276,699,c),
(406,768,l),
(473,799,l)
);
}
);
width = 736;
}
);
unicode = 65;
},
{
glyphname = B;
lastChange = "2019-09-19 12:14:46 +0000";
layers = (
{
hints = (
{
horizontal = 1;
place = (135, 46);
place = (135, 46);
type = Stem;
},
{
horizontal = 1;
place = (423, 45);
place = (423, 45);
type = Stem;
}
);
layerId = "FC429158-EA96-492C-B709-B39596C20987";
shapes = (
{
closed = 1;
nodes = (
(30,5,o),
(478,8,o),
(573,9,cs),
(601,9,o),
(614,47,o),
(616,73,c),
(616,198,o),
(616,733,o),
(616,765,c),
(616,765,o),
(560,771,o),
(535,758,c),
(512,745,o),
(487,715,o),
(482,685,cs),
(473,629,o),
(474,418,o),
(473,418,cs),
(247,420,l),
(248,770,l),
(248,770,o),
(194,775,o),
(172,763,cs),
(148,750,o),
(108,731,o),
(106,699,c),
(106,567,o),
(106,86,o),
(107,86,c),
(107,86,o),
(56,69,o),
(46,55,cs),
(36,40,o),
(30,5,o),
(30,5,cs)
);
},
{
closed = 1;
nodes = (
(245,333,l),
(475,333,l),
(475,89,l),
(245,89,l)
);
}
);
width = 646;
}
);
unicode = 66;
},
{
glyphname = C;
lastChange = "2019-09-19 12:15:06 +0000";
layers = (
{
layerId = "FC429158-EA96-492C-B709-B39596C20987";
shapes = (
{
closed = 1;
nodes = (
(29,227,o),
(31,384,o),
(31,408,c),
(489,408,l),
(489,408,o),
(490,566,o),
(490,624,cs),
(490,661,o),
(453,687,o),
(416,695,cs),
(357,706,o),
(240,704,o),
(186,685,cs),
(147,670,o),
(126,609,o),
(126,609,cs),
(30,608,ls),
(30,608,o),
(66,737,o),
(120,763,cs),
(193,798,o),
(424,806,o),
(498,777,cs),
(532,763,o),
(602,746,o),
(602,690,cs),
(602,565,o),
(602,271,o),
(602,162,cs),
(602,115,o),
(517,11,o),
(469,9,cs),
(400,5,o),
(214,5,o),
(150,13,cs),
(87,21,o),
(31,102,o),
(30,167,cs)
);
},
{
closed = 1;
nodes = (
(134,139,o),
(172,115,o),
(211,115,cs),
(273,113,o),
(363,112,o),
(418,113,cs),
(450,114,o),
(489,138,o),
(489,174,cs),
(489,208,o),
(489,291,o),
(489,291,cs),
(133,291,ls),
(133,291,o),
(132,211,o),
(133,176,cs)
);
}
);
width = 632;
}
);
unicode = 67;
},
{
glyphname = D;
lastChange = "2019-09-19 12:15:28 +0000";
layers = (
{
layerId = "FC429158-EA96-492C-B709-B39596C20987";
shapes = (
{
closed = 1;
nodes = (
(128,700,l),
(129,674,l),
(154,676,l),
(153,373,l),
(30,298,l),
(31,261,l),
(55,260,l),
(56,17,l),
(84,19,l),
(118,55,l),
(403,56,l),
(438,115,l),
(193,115,l),
(196,332,l),
(281,391,l),
(285,659,l),
(487,662,l),
(483,8,l),
(541,9,l),
(632,77,l),
(631,795,l),
(573,794,l),
(514,741,l),
(280,740,l),
(281,793,l),
(255,791,l)
);
}
);
width = 662;
}
);
unicode = 68;
},
{
glyphname = E;
lastChange = "2019-09-19 12:15:38 +0000";
layers = (
{
layerId = "FC429158-EA96-492C-B709-B39596C20987";
shapes = (
{
closed = 1;
nodes = (
(153,798,l),
(30,705,l),
(30,675,l),
(58,674,l),
(56,115,l),
(102,116,l),
(289,309,l),
(286,2,l),
(326,2,l),
(395,31,l),
(547,31,l),
(646,91,l),
(647,771,l),
(567,771,l),
(481,691,l),
(479,673,l),
(511,671,l),
(511,89,l),
(420,89,l),
(425,511,l),
(379,511,l),
(175,284,l),
(175,798,l)
);
}
);
width = 677;
}
);
unicode = 69;
},
{
glyphname = F;
lastChange = "2019-09-19 12:16:01 +0000";
layers = (
{
layerId = "FC429158-EA96-492C-B709-B39596C20987";
shapes = (
{
closed = 1;
nodes = (
(594,697,l),
(617,734,l),
(629,796,l),
(629,796,o),
(540,800,o),
(517,793,c),
(502,789,o),
(484,745,o),
(484,752,c),
(205,752,l),
(197,797,l),
(197,797,o),
(120,799,o),
(94,791,c),
(69,785,o),
(30,754,o),
(30,754,c),
(30,668,l),
(218,432,l),
(91,336,l),
(91,1,l),
(520,1,l),
(658,317,l),
(482,109,l),
(221,109,l),
(221,336,l),
(252,432,l),
(221,654,l),
(484,655,l),
(484,467,l),
(592,467,l)
);
}
);
width = 688;
}
);
unicode = 70;
},
{
glyphname = G;
lastChange = "2019-09-19 12:17:25 +0000";
layers = (
{
layerId = "FC429158-EA96-492C-B709-B39596C20987";
shapes = (
{
closed = 1;
nodes = (
(393,794,o),
(255,734,o),
(221,710,c),
(157,666,o),
(80,563,o),
(51,472,c),
(26,395,o),
(23,316,o),
(43,237,c),
(63,159,o),
(180,53,o),
(243,25,c),
(292,3,o),
(363,10,o),
(400,22,c),
(431,33,o),
(477,42,o),
(478,71,c),
(479,147,o),
(478,514,o),
(477,514,c),
(518,580,l),
(551,539,l),
(551,9,l),
(637,9,l),
(637,621,l),
(518,621,l),
(456,550,l),
(383,518,l),
(380,174,l),
(380,174,o),
(229,192,o),
(195,250,c),
(159,310,o),
(139,461,o),
(166,538,c),
(194,613,o),
(216,639,o),
(284,697,c),
(333,739,o),
(406,767,o),
(398,781,c)
);
}
);
width = 667;
}
);
unicode = 71;
},
{
glyphname = H;
lastChange = "2019-09-22 03:27:48 +0000";
layers = (
{
layerId = "FC429158-EA96-492C-B709-B39596C20987";
shapes = (
{
closed = 1;
nodes = (
(30,724,l),
(30,705,l),
(80,695,l),
(77,-31,l),
(188,25,l),
(196,695,l),
(541,696,l),
(541,696,o),
(542,493,o),
(533,417,c),
(529,386,o),
(514,330,o),
(491,293,c),
(464,249,o),
(426,232,o),
(426,232,c),
(426,578,l),
(267,475,l),
(267,448,l),
(295,448,l),
(295,60,l),
(295,60,o),
(506,164,o),
(555,240,c),
(588,290,o),
(655,408,o),
(658,459,c),
(661,540,o),
(666,786,o),
(666,786,c),
(611,750,l),
(208,750,l),
(159,812,l)
);
}
);
width = 696;
}
);
unicode = 72;
},
{
glyphname = I;
lastChange = "2019-09-19 12:17:52 +0000";
layers = (
{
layerId = "FC429158-EA96-492C-B709-B39596C20987";
shapes = (
{
closed = 1;
nodes = (
(385,793,l),
(260,707,l),
(258,683,l),
(290,683,l),
(287,115,l),
(177,115,l),
(184,478,l),
(155,478,l),
(30,387,l),
(30,364,l),
(59,363,l),
(59,11,l),
(100,11,l),
(165,60,l),
(486,60,l),
(618,333,l),
(414,115,l),
(414,793,l)
);
}
);
width = 648;
}
);
unicode = 73;
},
{
glyphname = J;
lastChange = "2019-09-19 12:19:33 +0000";
layers = (
{
layerId = "FC429158-EA96-492C-B709-B39596C20987";
shapes = (
{
closed = 1;
nodes = (
(30,558,o),
(30,264,o),
(30,264,c),
(30,264,o),
(127,353,o),
(148,414,c),
(166,470,o),
(159,596,o),
(159,632,c),
(159,688,o),
(33,694,o),
(30,630,c)
);
},
{
closed = 1;
nodes = (
(244,715,o),
(255,420,o),
(228,315,c),
(205,227,o),
(82,149,o),
(82,88,c),
(81,63,o),
(82,10,o),
(82,10,c),
(560,9,l),
(657,89,l),
(657,755,l),
(580,755,l),
(495,671,l),
(495,89,l),
(215,89,l),
(215,89,o),
(331,225,o),
(348,309,c),
(372,426,o),
(360,793,o),
(360,793,c),
(244,715,l)
);
}
);
width = 687;
}
);
unicode = 74;
},
{
glyphname = K;
lastChange = "2019-09-19 12:20:14 +0000";
layers = (
{
layerId = "FC429158-EA96-492C-B709-B39596C20987";
shapes = (
{
closed = 1;
nodes = (
(536,796,l),
(479,710,l),
(226,710,l),
(193,755,l),
(193,755,o),
(44,656,o),
(48,661,c),
(53,665,o),
(445,663,o),
(444,665,c),
(445,596,l),
(86,493,l),
(86,116,l),
(30,38,l),
(219,121,l),
(219,464,l),
(445,538,l),
(447,8,l),
(665,156,l),
(584,142,l),
(584,796,l)
);
}
);
width = 695;
}
);
unicode = 75;
},
{
glyphname = L;
lastChange = "2019-09-20 00:10:34 +0000";
layers = (
{
layerId = "FC429158-EA96-492C-B709-B39596C20987";
shapes = (
{
closed = 1;
nodes = (
(30,678,l),
(30,659,l),
(63,659,l),
(48,-40,l),
(247,107,l),
(171,83,l),
(181,761,l)
);
},
{
closed = 1;
nodes = (
(232,678,l),
(232,659,l),
(266,659,l),
(254,-40,l),
(454,107,l),
(371,83,l),
(390,761,l)
);
}
);
width = 484;
}
);
unicode = 76;
},
{
glyphname = M;
lastChange = "2019-09-19 12:22:11 +0000";
layers = (
{
layerId = "FC429158-EA96-492C-B709-B39596C20987";
shapes = (
{
closed = 1;
nodes = (
(65,667,l),
(65,14,l),
(118,40,l),
(497,40,l),
(497,40,o),
(498,14,o),
(498,13,c),
(497,12,o),
(531,14,o),
(531,13,c),
(621,77,l),
(621,699,l),
(276,483,l),
(276,463,l),
(290,463,l),
(292,112,l),
(204,112,l),
(205,791,l),
(181,792,l),
(31,682,l),
(30,666,l)
);
},
{
closed = 1;
nodes = (
(410,524,l),
(502,577,l),
(502,112,l),
(407,112,l)
);
}
);
width = 651;
}
);
unicode = 77;
},
{
glyphname = N;
lastChange = "2019-09-19 12:22:23 +0000";
layers = (
{
layerId = "FC429158-EA96-492C-B709-B39596C20987";
shapes = (
{
closed = 1;
nodes = (
(151,794,l),
(30,692,l),
(30,677,l),
(53,680,l),
(53,7,l),
(79,7,l),
(515,602,l),
(515,63,l),
(338,63,l),
(338,89,l),
(269,90,l),
(176,6,l),
(520,7,l),
(650,77,l),
(650,795,l),
(608,794,l),
(170,230,l),
(174,794,l)
);
}
);
width = 680;
}
);
unicode = 78;
},
{
glyphname = O;
lastChange = "2019-09-19 12:22:51 +0000";
layers = (
{
layerId = "FC429158-EA96-492C-B709-B39596C20987";
shapes = (
{
closed = 1;
nodes = (
(72,140,o),
(189,36,o),
(281,17,cs),
(378,-3,o),
(478,2,o),
(560,17,cs),
(644,32,o),
(742,94,o),
(766,184,cs),
(791,277,o),
(790,461,o),
(766,561,cs),
(742,659,o),
(643,743,o),
(557,768,cs),
(472,793,o),
(374,795,o),
(284,768,cs),
(197,742,o),
(70,649,o),
(47,562,cs),
(24,475,o),
(24,314,o),
(47,231,cs)
);
},
{
closed = 1;
nodes = (
(210,442,o),
(206,541,o),
(210,601,cs),
(214,656,o),
(273,713,o),
(324,731,cs),
(376,749,o),
(457,748,o),
(506,731,cs),
(554,714,o),
(605,659,o),
(606,608,cs),
(607,559,o),
(606,442,o),
(605,442,cs),
(206,442,ls)
);
},
{
closed = 1;
nodes = (
(606,344,l),
(606,344,o),
(609,242,o),
(606,193,cs),
(603,141,o),
(551,89,o),
(504,67,cs),
(456,45,o),
(375,44,o),
(325,67,cs),
(277,89,o),
(211,147,o),
(210,197,cs),
(209,258,o),
(210,344,o),
(210,344,c)
);
}
);
width = 814;
}
);
unicode = 79;
},
{
glyphname = P;
lastChange = "2019-09-19 12:23:02 +0000";
layers = (
{
layerId = "FC429158-EA96-492C-B709-B39596C20987";
shapes = (
{
closed = 1;
nodes = (
(30,7,l),
(655,7,l),
(655,93,l),
(176,93,l),
(176,226,l),
(176,226,o),
(435,225,o),
(527,226,c),
(581,227,o),
(650,288,o),
(663,343,c),
(677,401,o),
(696,435,o),
(680,496,c),
(663,563,o),
(569,693,o),
(523,715,c),
(512,720,o),
(513,781,o),
(513,781,c),
(347,675,l),
(347,675,o),
(504,532,o),
(521,479,c),
(534,436,o),
(557,387,o),
(543,357,c),
(534,338,o),
(525,311,o),
(504,310,c),
(455,304,o),
(298,314,o),
(243,324,c),
(216,330,o),
(176,334,o),
(176,370,c),
(175,447,o),
(176,789,o),
(173,790,c),
(30,789,l)
);
}
);
width = 716;
}
);
unicode = 80;
},
{
glyphname = Q;
lastChange = "2019-09-19 12:23:18 +0000";
layers = (
{
layerId = "FC429158-EA96-492C-B709-B39596C20987";
shapes = (
{
closed = 1;
nodes = (
(34,682,o),
(34,626,o),
(47,601,cs),
(66,566,o),
(151,473,o),
(151,473,cs),
(151,473,o),
(58,419,o),
(42,373,cs),
(26,328,o),
(22,246,o),
(55,195,cs),
(98,131,o),
(271,88,o),
(347,86,cs),
(401,86,o),
(501,93,o),
(502,93,c),
(501,11,l),
(657,11,l),
(657,787,l),
(34,682,l)
);
},
{
closed = 1;
nodes = (
(161,400,o),
(260,484,o),
(260,484,c),
(168,648,l),
(501,711,l),
(501,174,l),
(501,174,o),
(330,164,o),
(272,177,cs),
(226,189,o),
(181,213,o),
(161,246,cs),
(141,279,o),
(137,325,o),
(149,362,cs)
);
}
);
width = 687;
}
);
unicode = 81;
},
{
glyphname = R;
lastChange = "2019-09-19 12:23:57 +0000";
layers = (
{
layerId = "FC429158-EA96-492C-B709-B39596C20987";
shapes = (
{
closed = 1;
nodes = (
(654,794,o),
(445,787,o),
(366,727,c),
(270,653,o),
(127,438,o),
(75,349,c),
(48,304,o),
(54,194,o),
(54,194,c),
(204,231,l),
(204,231,o),
(336,570,o),
(391,627,c),
(416,651,o),
(482,662,o),
(482,662,c),
(422,262,l),
(528,285,l),
(528,285,o),
(516,83,o),
(482,65,c),
(455,50,o),
(159,63,o),
(159,63,c),
(149,117,l),
(30,3,l),
(525,3,l),
(525,3,o),
(609,27,o),
(627,70,c),
(649,121,o),
(654,309,o),
(654,309,c),
(700,323,l),
(700,403,l),
(585,378,l),
(593,681,l),
(654,693,l),
(654,794,l)
);
}
);
width = 730;
}
);
unicode = 82;
},
{
glyphname = S;
lastChange = "2019-09-19 12:24:05 +0000";
layers = (
{
layerId = "FC429158-EA96-492C-B709-B39596C20987";
shapes = (
{
closed = 1;
nodes = (
(30,708,l),
(30,686,l),
(58,685,l),
(58,49,l),
(48,1,l),
(178,71,l),
(178,675,l),
(469,675,l),
(469,356,l),
(601,440,l),
(601,680,l),
(609,754,l),
(538,714,l),
(178,714,l),
(178,797,l)
);
},
{
closed = 1;
nodes = (
(252,507,l),
(252,20,l),
(291,36,l),
(291,36,o),
(547,36,o),
(547,36,c),
(546,36,o),
(639,97,o),
(639,94,c),
(639,95,o),
(388,97,o),
(388,97,c),
(388,97,o),
(388,595,o),
(394,595,c)
);
}
);
width = 669;
}
);
unicode = 83;
},
{
glyphname = T;
lastChange = "2019-09-19 12:24:14 +0000";
layers = (
{
layerId = "FC429158-EA96-492C-B709-B39596C20987";
shapes = (
{
closed = 1;
nodes = (
(464,4,l),
(613,95,l),
(613,95,o),
(620,800,o),
(620,804,cs),
(620,805,o),
(504,725,o),
(504,725,cs),
(193,725,l),
(193,800,l),
(32,700,l),
(32,670,l),
(74,669,l),
(74,247,l),
(193,248,l),
(466,449,l),
(466,65,l),
(184,65,ls),
(184,65,o),
(153,92,o),
(156,95,c),
(30,4,l)
);
},
{
closed = 1;
nodes = (
(193,671,l),
(193,671,o),
(197,672,o),
(197,672,c),
(197,671,l),
(205,669,o),
(466,672,o),
(465,672,c),
(466,523,l),
(193,337,l)
);
}
);
width = 650;
}
);
unicode = 84;
},
{
glyphname = U;
lastChange = "2019-09-19 12:24:31 +0000";
layers = (
{
layerId = "FC429158-EA96-492C-B709-B39596C20987";
shapes = (
{
closed = 1;
nodes = (
(679,685,o),
(619,733,o),
(581,759,c),
(517,801,o),
(219,814,o),
(137,753,c),
(86,717,o),
(30,648,o),
(30,586,c),
(31,458,o),
(30,35,o),
(34,35,c),
(34,35,o),
(185,97,o),
(185,96,c),
(183,95,o),
(183,493,o),
(185,590,c),
(186,625,o),
(214,675,o),
(250,691,c),
(299,716,o),
(438,715,o),
(483,691,c),
(519,672,o),
(541,618,o),
(541,592,c),
(542,488,o),
(543,72,o),
(543,72,c),
(422,72,l),
(421,469,l),
(343,469,l),
(265,427,l),
(265,1,l),
(681,1,l),
(681,1,o),
(685,463,o),
(681,593,c)
);
}
);
width = 713;
}
);
unicode = 85;
},
{
glyphname = V;
lastChange = "2019-09-19 12:24:44 +0000";
layers = (
{
layerId = "FC429158-EA96-492C-B709-B39596C20987";
shapes = (
{
closed = 1;
nodes = (
(30,675,l),
(30,1,l),
(588,1,l),
(588,81,l),
(170,81,l),
(609,663,l),
(609,796,l),
(495,796,l),
(495,731,l),
(168,300,l),
(170,796,l),
(111,796,l)
);
}
);
width = 639;
}
);
unicode = 86;
},
{
glyphname = W;
lastChange = "2019-09-19 12:25:06 +0000";
layers = (
{
layerId = "FC429158-EA96-492C-B709-B39596C20987";
shapes = (
{
closed = 1;
nodes = (
(31,700,l),
(30,677,l),
(64,677,l),
(64,1,l),
(104,1,l),
(287,252,l),
(287,136,l),
(328,136,l),
(443,241,l),
(443,444,l),
(536,559,l),
(536,68,l),
(413,68,l),
(363,99,l),
(222,1,l),
(560,1,l),
(674,96,l),
(674,734,l),
(621,786,l),
(443,565,l),
(443,626,l),
(266,523,l),
(266,492,l),
(287,492,l),
(287,372,l),
(203,262,l),
(203,794,l),
(165,794,l)
);
}
);
width = 704;
}
);
unicode = 87;
},
{
glyphname = X;
lastChange = "2019-09-19 12:25:32 +0000";
layers = (
{
layerId = "FC429158-EA96-492C-B709-B39596C20987";
shapes = (
{
closed = 1;
nodes = (
(117,791,l),
(31,694,l),
(30,637,l),
(101,637,l),
(101,1,l),
(192,1,l),
(596,718,l),
(596,791,l),
(525,791,l),
(197,243,l),
(210,791,l)
);
},
{
closed = 1;
nodes = (
(229,1,l),
(735,1,l),
(735,80,l),
(364,80,l),
(622,553,l),
(550,553,l)
);
}
);
width = 765;
}
);
unicode = 88;
},
{
glyphname = Y;
lastChange = "2019-09-19 12:26:02 +0000";
layers = (
{
layerId = "FC429158-EA96-492C-B709-B39596C20987";
shapes = (
{
closed = 1;
nodes = (
(518,789,l),
(518,789,o),
(501,750,o),
(497,726,c),
(490,692,o),
(491,621,o),
(495,590,c),
(497,572,o),
(517,541,o),
(517,541,c),
(511,121,l),
(239,121,l),
(387,277,l),
(387,277,o),
(235,384,o),
(232,440,c),
(229,483,o),
(231,524,o),
(232,569,c),
(232,640,o),
(469,789,o),
(469,789,c),
(469,789,o),
(334,788,o),
(282,767,c),
(192,730,o),
(70,630,o),
(71,563,c),
(72,518,o),
(72,479,o),
(74,437,c),
(78,389,o),
(200,277,o),
(200,277,c),
(30,1,l),
(588,1,l),
(624,42,l),
(624,791,l)
);
}
);
width = 654;
}
);
unicode = 89;
},
{
glyphname = Z;
lastChange = "2019-09-19 12:26:12 +0000";
layers = (
{
layerId = "FC429158-EA96-492C-B709-B39596C20987";
shapes = (
{
closed = 1;
nodes = (
(211,797,l),
(30,598,l),
(121,598,l),
(123,100,l),
(69,1,l),
(69,1,o),
(483,0,o),
(584,1,c),
(659,2,o),
(709,52,o),
(712,124,c),
(713,189,o),
(558,398,o),
(558,398,c),
(558,398,o),
(686,600,o),
(689,651,c),
(695,757,o),
(461,797,o),
(461,797,c),
(420,643,l),
(420,643,o),
(550,594,o),
(548,548,c),
(546,502,o),
(408,365,o),
(408,365,c),
(408,365,o),
(549,197,o),
(554,145,c),
(556,111,o),
(522,106,o),
(522,107,c),
(267,106,l),
(267,797,l)
);
}
);
width = 742;
}
);
unicode = 90;
},
{
glyphname = a;
lastChange = "2019-09-23 01:09:20 +0000";
layers = (
{
layerId = "FC429158-EA96-492C-B709-B39596C20987";
shapes = (
{
closed = 1;
nodes = (
(466,87,l),
(361,1,l),
(10,1,l),
(10,1,o),
(80,275,o),
(124,356,c),
(157,417,o),
(279,496,o),
(279,496,c),
(279,165,l),
(183,116,l),
(183,306,l),
(103,66,l),
(358,66,l),
(358,66,o),
(358,391,o),
(358,391,c),
(358,392,o),
(321,420,o),
(321,420,c),
(466,510,l)
);
}
);
width = 496;
}
);
unicode = 97;
},
{
glyphname = b;
lastChange = "2019-09-19 12:26:41 +0000";
layers = (
{
layerId = "FC429158-EA96-492C-B709-B39596C20987";
shapes = (
{
closed = 1;
nodes = (
(95,409,l),
(95,285,l),
(257,285,l),
(257,677,l),
(327,677,l),
(327,1,l),
(30,1,l),
(30,408,l)
);
},
{
closed = 1;
nodes = (
(96,80,l),
(257,80,l),
(257,193,l),
(95,193,l)
);
}
);
width = 357;
}
);
unicode = 98;
},
{
glyphname = c;
lastChange = "2019-09-19 12:27:14 +0000";
layers = (
{
layerId = "FC429158-EA96-492C-B709-B39596C20987";
shapes = (
{
closed = 1;
nodes = (
(373,239,l),
(373,239,o),
(362,431,o),
(233,441,cs),
(169,446,o),
(129,342,o),
(129,342,cs),
(49,343,ls),
(49,343,o),
(81,503,o),
(255,499,cs),
(412,495,o),
(490,360,o),
(493,254,cs),
(496,160,o),
(403,1,o),
(271,3,cs),
(23,7,o),
(30,261,o),
(30,261,c)
);
},
{
closed = 1;
nodes = (
(125,222,o),
(155,63,o),
(273,53,cs),
(396,43,o),
(375,206,o),
(375,206,c),
(125,222,l)
);
}
);
width = 523;
}
);
unicode = 99;
},
{
glyphname = d;
lastChange = "2019-09-19 12:27:24 +0000";
layers = (
{
layerId = "FC429158-EA96-492C-B709-B39596C20987";
shapes = (
{
closed = 1;
nodes = (
(499,39,l),
(380,-34,l),
(380,393,l),
(249,392,l),
(249,289,l),
(154,227,l),
(154,64,l),
(364,65,l),
(346,10,l),
(69,10,l),
(39,1,l),
(46,41,l),
(46,176,l),
(30,176,l),
(119,239,l),
(119,406,l),
(105,420,l),
(249,499,l),
(249,453,l),
(432,453,l),
(499,494,l)
);
}
);
width = 529;
}
);
unicode = 100;
},
{
glyphname = e;
lastChange = "2019-09-20 01:00:39 +0000";
layers = (
{
layerId = "FC429158-EA96-492C-B709-B39596C20987";
shapes = (
{
closed = 1;
nodes = (
(519,63,l),
(398,-15,l),
(398,7,l),
(295,9,l),
(225,-36,l),
(225,155,l),
(158,67,l),
(158,43,l),
(59,-16,l),
(61,416,l),
(30,416,l),
(158,507,l),
(158,130,l),
(225,221,l),
(225,302,l),
(332,365,l),
(323,53,l),
(398,53,l),
(398,416,l),
(368,416,l),
(519,518,l)
);
}
);
width = 549;
}
);
unicode = 101;
},
{
glyphname = f;
lastChange = "2019-09-19 12:28:16 +0000";
layers = (
{
layerId = "FC429158-EA96-492C-B709-B39596C20987";
shapes = (
{
closed = 1;
nodes = (
(457,289,l),
(374,289,l),
(374,428,l),
(145,428,l),
(145,357,l),
(170,285,l),
(112,179,l),
(112,90,l),
(365,90,l),
(457,163,l),
(385,1,l),
(30,1,l),
(30,211,l),
(121,285,l),
(30,502,l),
(457,502,l)
);
}
);
width = 487;
}
);
unicode = 102;
},
{
glyphname = g;
lastChange = "2019-09-19 12:28:38 +0000";
layers = (
{
layerId = "FC429158-EA96-492C-B709-B39596C20987";
shapes = (
{
closed = 1;
nodes = (
(486,34,l),
(369,-35,l),
(369,353,l),
(322,327,l),
(322,62,l),
(213,8,l),
(213,8,o),
(59,15,o),
(32,245,c),
(8,446,o),
(253,501,o),
(316,498,c),
(342,497,o),
(341,498,o),
(342,490,c),
(342,484,o),
(328,480,o),
(306,478,c),
(278,474,o),
(113,416,o),
(123,265,c),
(131,153,o),
(216,138,o),
(213,138,c),
(216,280,l),
(195,291,l),
(453,465,l),
(486,465,l)
);
}
);
width = 516;
}
);
unicode = 103;
},
{
glyphname = h;
lastChange = "2019-09-19 12:29:17 +0000";
layers = (
{
layerId = "FC429158-EA96-492C-B709-B39596C20987";
shapes = (
{
closed = 1;
nodes = (
(151,532,l),
(151,470,l),
(479,470,l),
(513,486,l),
(513,486,o),
(525,332,o),
(383,163,cs),
(331,101,o),
(218,64,o),
(218,57,c),
(218,362,l),
(195,362,l),
(286,424,l),
(151,424,l),
(151,39,l),
(56,1,l),
(56,424,l),
(30,435,l)
);
},
{
closed = 1;
nodes = (
(316,182,o),
(377,223,o),
(383,286,cs),
(387,331,o),
(386,424,o),
(386,424,cs),
(316,424,l),
(311,182,l)
);
}
);
width = 543;
}
);
unicode = 104;
},
{
glyphname = i;
lastChange = "2019-09-26 02:49:03 +0000";
layers = (
{
layerId = "FC429158-EA96-492C-B709-B39596C20987";
shapes = (
{
closed = 1;
nodes = (
(227,44,l),
(30,-60,l),
(118,35,l),
(118,526,l),
(77,526,l),
(196,613,l),
(227,613,l)
);
}
);
width = 257;
}
);
unicode = 105;
},
{
glyphname = j;
lastChange = "2019-09-19 12:29:33 +0000";
layers = (
{
layerId = "FC429158-EA96-492C-B709-B39596C20987";
shapes = (
{
closed = 1;
nodes = (
(501,1,l),
(31,1,l),
(31,1,o),
(212,164,o),
(212,208,c),
(212,271,o),
(212,458,o),
(214,458,c),
(196,458,l),
(299,544,l),
(299,544,o),
(299,279,o),
(299,208,c),
(300,178,o),
(168,71,o),
(168,71,c),
(397,71,l),
(397,342,l),
(366,341,l),
(501,443,l)
);
},
{
closed = 1;
nodes = (
(144,395,o),
(146,285,o),
(125,257,c),
(106,231,o),
(31,166,o),
(30,166,c),
(30,166,o),
(29,272,o),
(31,315,c),
(32,345,o),
(144,395,o),
(144,395,c)
);
}
);
width = 531;
}
);
unicode = 106;
},
{
glyphname = k;
lastChange = "2019-09-19 12:29:47 +0000";
layers = (
{
layerId = "FC429158-EA96-492C-B709-B39596C20987";
shapes = (
{
closed = 1;
nodes = (
(408,144,l),
(500,176,l),
(303,19,l),
(303,345,l),
(168,285,l),
(168,101,l),
(168,101,o),
(181,95,o),
(181,90,c),
(182,81,o),
(174,72,o),
(174,72,c),
(174,72,o),
(61,-7,o),
(37,-22,c),
(34,-23,o),
(29,-17,o),
(30,-13,c),
(36,-4,o),
(76,36,o),
(76,36,c),
(76,285,l),
(303,392,l),
(303,414,l),
(34,413,l),
(134,493,l),
(169,451,l),
(303,451,l),
(408,532,l)
);
}
);
width = 530;
}
);
unicode = 107;
},
{
glyphname = l;
lastChange = "2019-09-20 00:09:12 +0000";
layers = (
{
layerId = "FC429158-EA96-492C-B709-B39596C20987";
shapes = (
{
closed = 1;
nodes = (
(409,107,l),
(516,139,l),
(284,-40,l),
(284,104,l),
(81,-40,l),
(81,481,l),
(30,481,l),
(183,603,l),
(204,603,l),
(203,107,l),
(284,132,l),
(284,481,l),
(249,481,l),
(401,603,l),
(423,603,l)
);
}
);
width = 546;
}
);
unicode = 108;
},
{
glyphname = m;
lastChange = "2019-09-19 12:30:39 +0000";
layers = (
{
layerId = "FC429158-EA96-492C-B709-B39596C20987";
shapes = (
{
closed = 1;
nodes = (
(149,465,l),
(185,465,l),
(179,48,l),
(252,48,l),
(252,310,l),
(214,322,l),
(513,558,l),
(536,558,l),
(536,37,l),
(425,-42,l),
(425,1,l),
(119,1,l),
(78,-32,l),
(78,351,l),
(30,363,l)
);
},
{
closed = 1;
nodes = (
(406,48,l),
(428,63,l),
(429,410,l),
(384,410,l),
(358,391,l),
(358,48,l)
);
}
);
width = 566;
}
);
unicode = 109;
},
{
glyphname = n;
lastChange = "2019-09-19 12:30:47 +0000";
layers = (
{
layerId = "FC429158-EA96-492C-B709-B39596C20987";
shapes = (
{
closed = 1;
nodes = (
(499,74,l),
(395,1,l),
(106,1,l),
(210,97,l),
(257,50,l),
(387,50,l),
(387,353,l),
(52,11,l),
(51,395,l),
(30,413,l),
(160,499,l),
(160,158,l),
(387,390,l),
(387,422,l),
(502,499,l)
);
}
);
width = 532;
}
);
unicode = 110;
},
{
glyphname = o;
lastChange = "2019-09-19 12:30:55 +0000";
layers = (
{
layerId = "FC429158-EA96-492C-B709-B39596C20987";
shapes = (
{
closed = 1;
nodes = (
(31,373,o),
(96,494,o),
(259,494,cs),
(442,494,o),
(480,373,o),
(479,239,cs),
(478,89,o),
(399,1,o),
(259,1,cs),
(124,1,o),
(29,118,o),
(30,239,cs)
);
},
{
closed = 1;
nodes = (
(367,280,l),
(367,280,o),
(368,337,o),
(368,369,cs),
(368,411,o),
(310,463,o),
(259,463,cs),
(205,463,o),
(145,409,o),
(145,369,cs),
(145,347,o),
(145,280,o),
(145,283,c)
);
},
{
closed = 1;
nodes = (
(147,72,o),
(211,33,o),
(259,33,cs),
(320,33,o),
(369,71,o),
(369,106,cs),
(369,143,o),
(368,210,o),
(368,210,cs),
(148,210,ls),
(148,210,o),
(147,145,o),
(147,106,cs)
);
}
);
width = 509;
}
);
unicode = 111;
},
{
glyphname = p;
lastChange = "2019-09-19 12:31:04 +0000";
layers = (
{
layerId = "FC429158-EA96-492C-B709-B39596C20987";
shapes = (
{
closed = 1;
nodes = (
(389,485,o),
(350,437,o),
(364,418,c),
(373,403,o),
(403,365,o),
(438,320,c),
(461,289,o),
(460,218,o),
(444,193,c),
(431,167,o),
(382,129,o),
(351,128,c),
(303,127,o),
(151,128,o),
(151,128,c),
(151,56,l),
(433,55,l),
(433,1,l),
(30,1,l),
(30,487,l),
(151,555,l),
(151,200,l),
(151,200,o),
(329,198,o),
(358,200,c),
(417,200,o),
(288,338,o),
(254,373,c),
(222,409,o),
(389,485,o),
(389,485,c)
);
}
);
width = 486;
}
);
unicode = 112;
},
{
glyphname = q;
lastChange = "2019-09-19 12:31:12 +0000";
layers = (
{
layerId = "FC429158-EA96-492C-B709-B39596C20987";
shapes = (
{
closed = 1;
nodes = (
(452,23,l),
(386,23,l),
(349,91,l),
(374,123,l),
(374,425,l),
(150,425,l),
(205,290,l),
(205,290,o),
(135,195,o),
(137,146,c),
(138,107,o),
(172,75,o),
(196,75,c),
(236,75,o),
(321,75,o),
(321,74,c),
(321,0,l),
(321,0,o),
(205,0,o),
(153,1,c),
(101,2,o),
(30,76,o),
(31,120,c),
(31,183,o),
(99,254,o),
(99,254,c),
(99,254,o),
(34,360,o),
(30,401,c),
(28,442,o),
(54,497,o),
(91,498,c),
(141,498,o),
(385,498,o),
(385,498,c),
(452,511,l)
);
}
);
width = 482;
}
);
unicode = 113;
},
{
glyphname = r;
lastChange = "2019-09-26 02:46:06 +0000";
layers = (
{
layerId = "FC429158-EA96-492C-B709-B39596C20987";
shapes = (
{
closed = 1;
nodes = (
(143,536,l),
(143,312,l),
(161,312,l),
(234,364,l),
(234,56,l),
(49,-37,l),
(47,-8,l),
(143,41,l),
(143,272,l),
(125,273,l),
(44,219,l),
(44,476,l),
(30,489,l),
(136,570,l),
(162,571,l)
);
}
);
width = 264;
}
);
unicode = 114;
},
{
glyphname = s;
lastChange = "2019-09-19 12:31:28 +0000";
layers = (
{
layerId = "FC429158-EA96-492C-B709-B39596C20987";
shapes = (
{
closed = 1;
nodes = (
(483,475,l),
(483,265,l),
(368,183,l),
(368,416,l),
(159,427,l),
(159,84,l),
(51,12,l),
(51,432,l),
(30,451,l),
(147,532,l),
(159,532,l),
(159,470,l),
(376,456,l),
(473,511,l),
(496,511,l)
);
},
{
closed = 1;
nodes = (
(318,86,l),
(480,86,l),
(419,30,l),
(250,30,l),
(194,1,l),
(210,90,l),
(210,289,l),
(318,360,l)
);
}
);
width = 526;
}
);
unicode = 115;
},
{
glyphname = t;
lastChange = "2019-09-26 02:50:06 +0000";
layers = (
{
layerId = "FC429158-EA96-492C-B709-B39596C20987";
shapes = (
{
closed = 1;
nodes = (
(147,225,l),
(257,316,l),
(257,341,l),
(362,411,l),
(362,61,l),
(173,-47,l),
(162,-26,l),
(257,31,l),
(257,277,l),
(147,166,l),
(147,27,l),
(51,-36,l),
(51,481,l),
(30,496,l),
(147,580,l)
);
}
);
width = 392;
}
);
unicode = 116;
},
{
glyphname = u;
lastChange = "2019-09-19 12:32:05 +0000";
layers = (
{
layerId = "FC429158-EA96-492C-B709-B39596C20987";
shapes = (
{
closed = 1;
nodes = (
(493,248,o),
(490,39,o),
(490,39,c),
(382,-24,l),
(381,18,l),
(190,16,l),
(227,54,l),
(227,283,l),
(198,305,l),
(309,370,l),
(322,370,l),
(322,54,l),
(381,54,l),
(381,54,o),
(383,289,o),
(381,364,c),
(381,412,o),
(354,454,o),
(269,454,c),
(187,451,o),
(154,406,o),
(153,356,c),
(152,295,o),
(152,91,o),
(152,91,c),
(30,10,l),
(30,10,o),
(33,234,o),
(35,321,c),
(35,430,o),
(152,498,o),
(269,501,c),
(381,501,o),
(492,430,o),
(492,337,c)
);
}
);
width = 522;
}
);
unicode = 117;
},
{
glyphname = v;
lastChange = "2019-09-19 12:32:15 +0000";
layers = (
{
layerId = "FC429158-EA96-492C-B709-B39596C20987";
shapes = (
{
closed = 1;
nodes = (
(440,319,o),
(213,67,o),
(213,66,c),
(474,67,l),
(474,1,l),
(30,1,l),
(69,67,l),
(69,470,l),
(173,499,l),
(173,345,l),
(141,290,l),
(141,134,l),
(374,374,l),
(374,374,o),
(376,417,o),
(389,449,c),
(400,475,o),
(446,495,o),
(475,491,c),
(504,487,o),
(519,407,o),
(498,384,c)
);
}
);
width = 538;
}
);
unicode = 118;
},
{
glyphname = w;
lastChange = "2019-09-19 12:32:27 +0000";
layers = (
{
layerId = "FC429158-EA96-492C-B709-B39596C20987";
shapes = (
{
closed = 1;
nodes = (
(497,493,o),
(496,161,o),
(497,81,c),
(497,33,o),
(378,1,o),
(377,3,c),
(376,4,o),
(161,1,o),
(161,1,c),
(268,84,l),
(312,54,l),
(378,53,l),
(378,336,l),
(327,301,l),
(327,157,l),
(207,83,l),
(207,155,l),
(160,127,l),
(160,85,l),
(45,13,l),
(45,175,l),
(57,188,l),
(57,405,l),
(30,413,l),
(146,499,l),
(180,499,l),
(180,455,l),
(160,442,l),
(160,175,l),
(207,202,l),
(207,360,l),
(195,371,l),
(327,464,l),
(327,337,l),
(378,372,l),
(378,418,l),
(496,493,l)
);
}
);
width = 527;
}
);
unicode = 119;
},
{
glyphname = x;
lastChange = "2019-09-19 12:32:48 +0000";
layers = (
{
layerId = "FC429158-EA96-492C-B709-B39596C20987";
shapes = (
{
closed = 1;
nodes = (
(275,60,l),
(431,60,l),
(431,1,l),
(194,1,l),
(196,60,l),
(395,363,l),
(455,351,l)
);
},
{
closed = 1;
nodes = (
(128,1,l),
(30,1,l),
(30,398,l),
(94,493,l),
(128,494,l),
(128,156,l),
(260,361,l),
(260,361,o),
(249,411,o),
(249,430,c),
(250,454,o),
(293,487,o),
(324,496,c),
(338,500,o),
(354,473,o),
(354,460,c),
(353,437,o),
(352,372,o),
(352,372,c)
);
}
);
width = 485;
}
);
unicode = 120;
},
{
glyphname = y;
lastChange = "2019-09-26 02:51:17 +0000";
layers = (
{
layerId = "FC429158-EA96-492C-B709-B39596C20987";
shapes = (
{
closed = 1;
nodes = (
(434,525,o),
(435,140,o),
(434,51,c),
(434,21,o),
(369,-12,o),
(369,-15,c),
(305,-12,l),
(299,19,l),
(30,19,l),
(30,85,l),
(127,157,l),
(127,157,o),
(61,181,o),
(44,222,c),
(28,261,o),
(27,338,o),
(39,384,c),
(50,429,o),
(98,478,o),
(141,496,c),
(182,513,o),
(295,516,o),
(295,516,c),
(295,516,o),
(167,452,o),
(143,412,c),
(123,376,o),
(132,300,o),
(142,270,c),
(152,247,o),
(207,211,o),
(207,211,c),
(207,132,l),
(128,58,l),
(317,58,l),
(317,468,l),
(434,525,l)
);
}
);
width = 464;
}
);
unicode = 121;
},
{
glyphname = z;
lastChange = "2019-09-19 12:33:04 +0000";
layers = (
{
layerId = "FC429158-EA96-492C-B709-B39596C20987";
shapes = (
{
closed = 1;
nodes = (
(395,499,o),
(460,400,o),
(460,400,c),
(334,266,l),
(473,101,l),
(371,1,l),
(30,1,l),
(62,67,l),
(62,373,l),
(31,402,l),
(155,499,l),
(155,67,l),
(357,67,l),
(262,251,l),
(349,352,l),
(349,352,o),
(304,396,o),
(284,421,c),
(266,441,o),
(328,499,o),
(361,499,c)
);
}
);
width = 503;
}
);
unicode = 122;
},
{
glyphname = zero;
lastChange = "2019-09-19 12:13:49 +0000";
layers = (
{
layerId = "FC429158-EA96-492C-B709-B39596C20987";
shapes = (
{
closed = 1;
nodes = (
(30,247,o),
(30,420,o),
(30,530,cs),
(30,598,o),
(97,696,o),
(175,696,cs),
(259,696,o),
(310,602,o),
(310,534,cs),
(310,438,o),
(310,244,o),
(310,153,cs),
(310,90,o),
(250,1,o),
(175,1,cs),
(106,1,o),
(30,87,o),
(30,154,cs)
);
},
{
closed = 1;
nodes = (
(106,119,o),
(116,63,o),
(176,62,cs),
(241,61,o),
(245,118,o),
(245,162,cs),
(245,235,o),
(245,440,o),
(245,522,cs),
(245,566,o),
(234,626,o),
(175,625,cs),
(119,624,o),
(105,565,o),
(105,522,cs),
(105,444,o),
(103,240,o),
(105,163,cs)
);
}
);
width = 340;
}
);
unicode = 48;
},
{
glyphname = one;
lastChange = "2019-09-19 12:35:09 +0000";
layers = (
{
layerId = "FC429158-EA96-492C-B709-B39596C20987";
shapes = (
{
closed = 1;
nodes = (
(128,206,l),
(192,303,l),
(222,303,l),
(222,238,l),
(77,1,l),
(54,1,l),
(54,561,l),
(30,584,l),
(103,694,l),
(128,694,l)
);
}
);
width = 252;
}
);
unicode = 49;
},
{
glyphname = two;
lastChange = "2019-09-19 12:37:58 +0000";
layers = (
{
layerId = "FC429158-EA96-492C-B709-B39596C20987";
shapes = (
{
closed = 1;
nodes = (
(134,196,l),
(342,336,l),
(420,336,l),
(420,56,l),
(342,56,l),
(342,213,l),
(30,1,l),
(30,614,l),
(30,614,o),
(56,693,o),
(77,693,c),
(106,694,o),
(134,693,o),
(134,693,c)
);
}
);
width = 450;
}
);
unicode = 50;
},
{
glyphname = three;
lastChange = "2021-04-19 07:36:16 +0000";
layers = (
{
layerId = "FC429158-EA96-492C-B709-B39596C20987";
shapes = (
{
attr = {
fillColor = (0,255);
};
closed = 1;
nodes = (
(54,580,l),
(54,73,l),
(122,148,l),
(122,194,l),
(197,282,l),
(197,0,l),
(262,74,l),
(262,700,l),
(197,621,l),
(197,577,l),
(122,489,l),
(122,700,l),
(30,580,l)
);
},
{
attr = {
fillColor = (0,255);
};
closed = 1;
nodes = (
(197,505,l),
(197,359,l),
(121,268,l),
(122,424,l)
);
}
);
width = 292;
}
);
unicode = 51;
},
{
glyphname = four;
lastChange = "2019-09-19 12:47:24 +0000";
layers = (
{
layerId = "FC429158-EA96-492C-B709-B39596C20987";
shapes = (
{
closed = 1;
nodes = (
(311,64,l),
(242,1,l),
(242,519,l),
(166,438,l),
(30,602,l),
(105,699,l),
(205,570,l),
(311,699,l)
);
}
);
width = 341;
}
);
unicode = 52;
},
{
glyphname = five;
lastChange = "2019-09-19 12:49:44 +0000";
layers = (
{
layerId = "FC429158-EA96-492C-B709-B39596C20987";
shapes = (
{
closed = 1;
nodes = (
(298,71,l),
(233,1,l),
(233,535,l),
(163,434,l),
(126,483,l),
(126,71,l),
(43,1,l),
(49,576,l),
(30,601,l),
(91,699,l),
(125,699,l),
(197,559,l),
(277,699,l),
(298,699,l)
);
}
);
width = 328;
}
);
unicode = 53;
},
{
glyphname = six;
lastChange = "2021-05-08 11:37:50 +0000";
layers = (
{
layerId = "FC429158-EA96-492C-B709-B39596C20987";
shapes = (
{
attr = {
fillColor = (0,255);
};
closed = 1;
nodes = (
(56,576,l),
(59,0,l),
(121,62,l),
(121,452,l),
(155,474,l),
(155,162,l),
(195,204,l),
(195,499,l),
(225,521,l),
(225,0,l),
(303,79,l),
(303,700,l),
(160,576,l),
(107,700,l),
(30,598,l)
);
}
);
width = 333;
}
);
unicode = 54;
},
{
glyphname = seven;
lastChange = "2021-05-08 11:37:01 +0000";
layers = (
{
layerId = "FC429158-EA96-492C-B709-B39596C20987";
shapes = (
{
attr = {
fillColor = (0,255);
};
closed = 1;
nodes = (
(67,566,l),
(69,0,l),
(120,71,l),
(180,0,l),
(338,178,l),
(192,364,l),
(145,309,l),
(246,185,l),
(211,146,l),
(122,263,l),
(122,700,l),
(30,564,l)
);
}
);
width = 368;
}
);
unicode = 55;
},
{
glyphname = eight;
lastChange = "2019-09-19 12:51:51 +0000";
layers = (
{
layerId = "FC429158-EA96-492C-B709-B39596C20987";
shapes = (
{
closed = 1;
nodes = (
(30,641,l),
(62,699,l),
(316,699,l),
(456,552,l),
(456,484,l),
(362,395,l),
(490,262,l),
(490,164,l),
(419,145,l),
(291,1,l),
(145,122,l),
(30,16,l)
);
},
{
closed = 1;
nodes = (
(281,412,l),
(360,486,l),
(180,652,l),
(104,651,l),
(103,559,l)
);
},
{
closed = 1;
nodes = (
(305,107,l),
(378,186,l),
(168,367,l),
(107,365,l),
(107,265,l)
);
}
);
width = 520;
}
);
unicode = 56;
},
{
glyphname = nine;
lastChange = "2021-05-08 11:37:35 +0000";
layers = (
{
layerId = "FC429158-EA96-492C-B709-B39596C20987";
shapes = (
{
attr = {
fillColor = (0,255);
};
closed = 1;
nodes = (
(60,581,l),
(60,0,l),
(128,80,l),
(219,0,l),
(332,144,l),
(332,700,l),
(125,465,l),
(159,466,l),
(162,350,l),
(222,351,l),
(222,533,l),
(270,533,l),
(264,141,l),
(125,227,l),
(125,700,l),
(30,579,l)
);
}
);
width = 362;
}
);
unicode = 57;
},
{
glyphname = period;
lastChange = "2020-03-06 19:34:30 +0000";
layers = (
{
layerId = "FC429158-EA96-492C-B709-B39596C20987";
shapes = (
{
closed = 1;
nodes = (
(30,84,o),
(54,108,o),
(84,108,cs),
(114,108,o),
(138,84,o),
(138,55,cs),
(138,25,o),
(114,1,o),
(84,1,cs),
(54,1,o),
(30,25,o),
(30,55,cs)
);
},
{
closed = 1;
nodes = (
(65,45,o),
(73,36,o),
(83,36,cs),
(94,36,o),
(102,45,o),
(102,55,cs),
(102,66,o),
(94,74,o),
(83,74,cs),
(73,74,o),
(65,66,o),
(65,55,cs)
);
}
);
width = 168;
}
);
unicode = 46;
},
{
glyphname = comma;
lastChange = "2020-03-06 19:15:08 +0000";
layers = (
{
layerId = "FC429158-EA96-492C-B709-B39596C20987";
shapes = (
{
closed = 1;
nodes = (
(59,81,l),
(112,81,l),
(112,31,l),
(59,31,l)
);
},
{
closed = 1;
nodes = (
(84,108,l),
(114,108,o),
(138,84,o),
(138,55,c),
(138,25,o),
(114,1,o),
(84,1,c),
(54,1,o),
(30,25,o),
(30,55,c),
(30,84,o),
(54,108,o),
(84,108,c)
);
},
{
closed = 1;
nodes = (
(83,74,l),
(94,74,o),
(102,66,o),
(102,55,c),
(102,45,o),
(94,36,o),
(83,36,c),
(73,36,o),
(65,45,o),
(65,55,c),
(65,66,o),
(73,74,o),
(83,74,c)
);
}
);
width = 168;
}
);
unicode = 44;
},
{
glyphname = hyphen;
lastChange = "2020-03-06 19:16:00 +0000";
layers = (
{
layerId = "FC429158-EA96-492C-B709-B39596C20987";
shapes = (
{
closed = 1;
nodes = (
(30,298,l),
(402,298,l),
(402,243,l),
(30,243,l)
);
}
);
width = 432;
}
);
unicode = 45;
},
